<svg width="54" height="80" viewBox="0 0 54 80" fill="none" xmlns="http://www.w3.org/2000/svg">
	<path d="M35.33 33.7401V42.3701L2.5 23.4102V28.1302V36.7602L19.08 46.3302V37.7002L51.92 56.6601V54.9402V51.9402V43.3202L35.33 33.7401Z" fill="#E6904E" stroke="#2E222F" stroke-width="4" stroke-miterlimit="10" stroke-linejoin="round"/>
	<path d="M28.98 51.8901V8.11008L25.4399 6.0701L18.97 2.33008V24.4401L25.4399 28.1801V71.9601L28.98 74.0101L35.45 77.7401V55.6301L28.98 51.8901Z" fill="#E6904E" stroke="#2E222F" stroke-width="4" stroke-miterlimit="10" stroke-linejoin="round"/>
	<path d="M30.2252 46.8362C32.3648 45.9256 32.7932 42.1182 31.1819 38.332C29.5707 34.5458 26.5299 32.2147 24.3904 33.1252C22.2508 34.0357 21.8225 37.8431 23.4338 41.6293C25.045 45.4155 28.0856 47.7467 30.2252 46.8362Z" fill="#E6904E" stroke="#2E222F" stroke-width="4" stroke-miterlimit="10" stroke-linejoin="round"/>
</svg>
