<svg width="50" height="92" viewBox="0 0 50 92" fill="none" xmlns="http://www.w3.org/2000/svg">
	<path d="M47.1997 35.26H2.98975V55.81V76.37C2.98975 79.06 4.45977 81.76 7.38977 84.01C8.00977 84.49 8.69972 84.95 9.45972 85.39C10.8997 86.22 12.4898 86.91 14.1798 87.46C17.5498 88.57 21.3197 89.12 25.0897 89.12C30.7497 89.12 36.3997 87.88 40.7197 85.39C42.8797 84.14 44.4997 82.7 45.5797 81.17C46.6597 79.63 47.1997 78 47.1997 76.37V55.82C47.1997 55.82 47.1997 55.82 47.1997 55.81V35.26Z" fill="#DEDEDE" stroke="#2E222F" stroke-width="4" stroke-miterlimit="10" stroke-linejoin="round"/>
	<path d="M9.4598 44.29C0.829804 39.31 0.829804 31.22 9.4598 26.24C18.0898 21.26 32.0898 21.26 40.7198 26.24C49.3498 31.22 49.3498 39.31 40.7198 44.29C32.0898 49.27 18.0998 49.27 9.4598 44.29Z" fill="white" stroke="#2E222F" stroke-width="4" stroke-miterlimit="10" stroke-linejoin="round"/>
	<path d="M46.1599 31.38C45.7799 30.69 45.2898 30.02 44.7098 29.37L25.0998 2.21997L5.48983 29.37C4.90983 30.02 4.41988 30.69 4.04988 31.37L4.03987 31.38C1.60987 35.78 3.41981 40.79 9.46981 44.29C18.0998 49.27 32.0998 49.27 40.7298 44.29C46.7798 40.8 48.5799 35.78 46.1599 31.38Z" fill="#E73B3C" stroke="#2E222F" stroke-width="4" stroke-miterlimit="10" stroke-linejoin="round"/>
</svg>
