<svg width="51" height="74" viewBox="0 0 51 74" fill="none" xmlns="http://www.w3.org/2000/svg">
	<path d="M44.0502 26.2201L41.5502 21.4401L36.9701 12.6901L25.2501 21.5601L29.8201 30.3L6.6001 47.86L8.14014 50.79L8.65015 51.7701L9.11011 52.6401L13.6802 61.3801L25.4102 52.5201L20.8301 43.7701L44.0502 26.2201Z" fill="#E6904E" stroke="#2E222F" stroke-width="4" stroke-miterlimit="10" stroke-linejoin="round"/>
	<path d="M44.05 69.48L48.63 66.0201L36.9 43.61L32.33 47.0701L9.10999 2.70007L6.59998 4.60007L2.03003 8.06006L13.76 30.4601L18.33 27.0001L41.55 71.3701L42.63 70.55L43.9 69.6L44.05 69.48Z" fill="#E6904E" stroke="#2E222F" stroke-width="4" stroke-miterlimit="10" stroke-linejoin="round"/>
	<path d="M28.3509 43.8302C30.4905 42.9197 30.9189 39.1122 29.3076 35.326C27.6964 31.5399 24.6557 29.2087 22.5161 30.1192C20.3765 31.0297 19.9483 34.8371 21.5595 38.6233C23.1708 42.4095 26.2114 44.7407 28.3509 43.8302Z" fill="#E6904E" stroke="#2E222F" stroke-width="4" stroke-miterlimit="10" stroke-linejoin="round"/>
</svg>
