<svg width="125" height="112" viewBox="0 0 125 112" fill="none" xmlns="http://www.w3.org/2000/svg">
	<g clip-path="url(#clip0_117_573)">
		<rect width="125" height="112" fill="white"/>
		<g clip-path="url(#clip1_117_573)">
			<path d="M67 19H59C35.804 19 17 37.804 17 61V69C17 92.196 35.804 111 59 111H67C90.196 111 109 92.196 109 69V61C109 37.804 90.196 19 67 19Z" fill="#FFB02E"/>
			<path d="M43.5 74C52.6127 74 60 66.6127 60 57.5C60 48.3873 52.6127 41 43.5 41C34.3873 41 27 48.3873 27 57.5C27 66.6127 34.3873 74 43.5 74Z" fill="white"/>
			<path d="M82.5 74C91.6127 74 99 66.6127 99 57.5C99 48.3873 91.6127 41 82.5 41C73.3873 41 66 48.3873 66 57.5C66 66.6127 73.3873 74 82.5 74Z" fill="white"/>
			<path d="M73 78H52C49.7909 78 48 79.7909 48 82C48 84.2091 49.7909 86 52 86H73C75.2091 86 77 84.2091 77 82C77 79.7909 75.2091 78 73 78Z" fill="#402A32"/>
			<path d="M45 65C48.866 65 52 61.866 52 58C52 54.134 48.866 51 45 51C41.134 51 38 54.134 38 58C38 61.866 41.134 65 45 65Z" fill="#402A32"/>
			<path d="M80 65C83.866 65 87 61.866 87 58C87 54.134 83.866 51 80 51C76.134 51 73 54.134 73 58C73 61.866 76.134 65 80 65Z" fill="#402A32"/>
			<path d="M36 38L36.1651 38.2311C39.708 43.1912 47.1189 43.0717 50.5 38" stroke="#402A32" stroke-width="4"/>
			<path d="M36 40C37.1046 40 38 39.1046 38 38C38 36.8954 37.1046 36 36 36C34.8954 36 34 36.8954 34 38C34 39.1046 34.8954 40 36 40Z" fill="#402A32"/>
			<path d="M50.5 40C51.6046 40 52.5 39.1046 52.5 38C52.5 36.8954 51.6046 36 50.5 36C49.3954 36 48.5 36.8954 48.5 38C48.5 39.1046 49.3954 40 50.5 40Z" fill="#402A32"/>
			<path d="M89 35L88.8349 34.7689C85.292 29.8088 77.8811 29.9283 74.5 35" stroke="#402A32" stroke-width="4"/>
			<path d="M89 33C87.8954 33 87 33.8954 87 35C87 36.1046 87.8954 37 89 37C90.1046 37 91 36.1046 91 35C91 33.8954 90.1046 33 89 33Z" fill="#402A32"/>
			<path d="M74.5 33C73.3954 33 72.5 33.8954 72.5 35C72.5 36.1046 73.3954 37 74.5 37C75.6046 37 76.5 36.1046 76.5 35C76.5 33.8954 75.6046 33 74.5 33Z" fill="#402A32"/>
		</g>
		<path d="M69.3156 11.1667L77.9025 4.00854H92.5003L106.239 5.15384L114.826 11.1667L120.265 17.1795L121.696 27.2009V37.7949L118.834 46.6709L106.239 50.3932H92.5003L79.3337 48.3889L76.1851 41.5171L64.4496 37.7949L63.3047 27.2009L64.4496 16.6068L69.3156 11.1667Z" fill="#FFB3B3"/>
		<path d="M101.386 13.218C101.777 12.8265 101.973 12.3513 101.973 11.792C101.973 11.2328 101.777 10.7575 101.386 10.366C100.491 9.47122 99.4291 8.76286 98.1993 8.24089C96.988 7.7003 95.6928 7.43001 94.3139 7.43001C92.9349 7.43001 91.6397 7.7003 90.4285 8.24089C89.2173 8.76286 88.1644 9.47122 87.2699 10.366C86.8786 10.7575 86.6829 11.2328 86.6829 11.792C86.6829 12.3513 86.8786 12.8265 87.2699 13.218C87.6612 13.6095 88.1271 13.8052 88.6675 13.8052C89.2265 13.8052 89.7111 13.6095 90.1211 13.218C91.2764 12.0623 92.674 11.4844 94.3139 11.4844C95.9538 11.4844 97.3607 12.0623 98.5347 13.218C98.926 13.6095 99.4012 13.8052 99.9602 13.8052C100.519 13.8052 100.994 13.6095 101.386 13.218ZM77.9897 11.2887C78.4742 11.0091 78.9867 10.9438 79.5271 11.093C80.0675 11.2235 80.4775 11.531 80.757 12.0157C81.0365 12.5004 81.1017 13.013 80.9527 13.5536C80.8222 14.0755 80.5148 14.4856 80.0302 14.7839C78.5954 15.6041 77.3189 16.6386 76.2007 17.8876C75.0827 19.1179 74.1789 20.488 73.4894 21.9979C72.7812 23.5451 72.334 25.1669 72.1477 26.8632C72.0918 27.4224 71.8402 27.8791 71.393 28.2333C70.9644 28.5689 70.4706 28.7086 69.9115 28.6528C69.3711 28.5968 68.9239 28.3545 68.5698 27.9257C68.2157 27.4784 68.0759 26.9751 68.1505 26.4158C68.3741 24.2908 68.9331 22.2589 69.8276 20.3202C70.6848 18.4375 71.8122 16.7225 73.2099 15.1753C74.6075 13.6281 76.2007 12.3326 77.9897 11.2887ZM108.43 33.7976C108.43 34.6365 108.132 35.3541 107.535 35.9507C106.939 36.5285 106.231 36.8175 105.411 36.8175H97.6402C98.1061 35.8295 98.339 34.8229 98.339 33.7976C98.339 33.2384 98.1433 32.7631 97.752 32.3716C97.3607 31.9801 96.8855 31.7844 96.3265 31.7844C95.786 31.7844 95.3108 31.9801 94.9009 32.3716C94.5096 32.7631 94.3139 33.2384 94.3139 33.7976C94.3139 34.6365 94.0157 35.3541 93.4194 35.9507C92.8418 36.5285 92.1336 36.8175 91.295 36.8175H86.9065C86.3475 36.8175 85.8723 37.0132 85.481 37.4047C85.0896 37.7961 84.8939 38.2714 84.8939 38.8307C84.8939 39.3899 85.0896 39.8652 85.481 40.2567C85.8723 40.6482 86.3475 40.8439 86.9065 40.8439H99.3453C100.184 40.8439 100.892 41.1422 101.47 41.7387C102.066 42.3352 102.373 43.0436 102.392 43.8638C102.392 44.423 102.588 44.9076 102.979 45.3177C103.37 45.7092 103.846 45.9049 104.405 45.9049C104.945 45.9049 105.411 45.7092 105.802 45.3177C106.212 44.9076 106.417 44.423 106.417 43.8638C106.417 42.8198 106.175 41.8039 105.69 40.8159C106.939 40.7787 108.076 40.4431 109.101 39.8093C110.126 39.1569 110.936 38.3087 111.532 37.2648C112.147 36.2209 112.455 35.0652 112.455 33.7976C112.455 33.2384 112.259 32.7631 111.868 32.3716C111.476 31.9801 111.001 31.7844 110.442 31.7844C109.883 31.7844 109.408 31.9801 109.017 32.3716C108.625 32.7631 108.43 33.2384 108.43 33.7976ZM124.53 32.2038V36.8175C124.53 36.8734 124.53 36.9479 124.53 37.0412C124.512 37.1157 124.502 37.1809 124.502 37.2369C124.521 37.3487 124.53 37.4233 124.53 37.4606C124.53 37.6283 124.53 37.7495 124.53 37.8241C124.53 37.9545 124.493 38.1503 124.419 38.4113C124.363 38.9332 124.288 39.4458 124.195 39.9491C124.12 40.4524 124.009 40.9465 123.859 41.4311C123.263 43.4443 122.313 45.2618 121.008 46.8836C119.723 48.4867 118.167 49.8009 116.341 50.8261C114.533 51.8514 112.567 52.5038 110.442 52.7834V58.1521C110.442 58.8233 110.126 59.2894 109.492 59.5499C108.877 59.8111 108.337 59.6994 107.871 59.2144L101.581 52.9512H87.2699C85.2014 52.9512 83.282 52.5131 81.5117 51.637C79.76 50.7609 78.2692 49.5679 77.0393 48.058C75.8281 46.5294 74.9988 44.7958 74.5516 42.8571H72.0359C69.837 42.8571 67.8337 42.3259 66.0261 41.2633C64.2186 40.1821 62.7744 38.7375 61.6935 36.9293C60.6127 35.1025 60.0723 33.0893 60.0723 30.8896C60.0723 26.6954 60.8549 22.7715 62.4203 19.1179C64.0042 15.4456 66.1845 12.2207 68.9611 9.44322C71.7377 6.66576 74.9523 4.49407 78.6047 2.92823C82.2757 1.34375 86.2077 0.551514 90.4005 0.551514H92.8883C96.9507 0.551514 100.78 1.26919 104.377 2.70454C107.973 4.12125 111.179 6.09717 113.992 8.63235C116.825 11.1675 119.135 14.1314 120.924 17.5241C122.732 20.9167 123.859 24.589 124.307 28.5409C124.381 29.1374 124.437 29.7432 124.475 30.3584C124.512 30.9549 124.53 31.5701 124.53 32.2038ZM120.002 40.2847C120.281 39.334 120.44 38.318 120.477 37.2369C120.403 35.8201 120.076 34.4966 119.499 33.2664C118.94 32.0174 118.194 30.9269 117.263 29.9949C116.256 28.9883 115.082 28.196 113.741 27.6181C112.399 27.0403 110.964 26.7513 109.436 26.7513C109.306 26.7513 109.119 26.714 108.877 26.6395H108.849C107.712 27.6088 106.417 28.3731 104.964 28.9323C103.529 29.4916 102.001 29.7712 100.38 29.7712C99.8205 29.7712 99.336 29.5755 98.926 29.184C98.5347 28.7925 98.339 28.3172 98.339 27.758C98.339 27.1987 98.5347 26.7234 98.926 26.3319C99.336 25.9405 99.8205 25.7447 100.38 25.7447C101.628 25.7447 102.802 25.5117 103.902 25.0457C105.001 24.5611 105.961 23.9086 106.781 23.0884C107.601 22.2682 108.243 21.3082 108.709 20.2084C109.194 19.1086 109.436 17.9248 109.436 16.6573C109.436 16.1167 109.632 15.6507 110.023 15.2592C110.414 14.8491 110.89 14.6441 111.449 14.6441C112.008 14.6441 112.483 14.8491 112.874 15.2592C113.265 15.6507 113.461 16.1167 113.461 16.6573C113.461 18.8942 112.93 20.982 111.868 22.9206C113.433 23.1816 114.905 23.6663 116.284 24.3747C117.664 25.083 118.902 25.9685 120.002 27.031C119.387 23.8434 118.269 20.8888 116.648 18.1672C115.027 15.427 113.005 13.0409 110.582 11.0091C108.16 8.9772 105.448 7.40207 102.448 6.28363C99.4478 5.14651 96.2612 4.57796 92.8883 4.57796H90.4005C86.7668 4.57796 83.3565 5.26767 80.17 6.64709C76.9834 8.02654 74.1975 9.90924 71.8122 12.2953C69.427 14.6814 67.5449 17.4682 66.1659 20.6558C64.7869 23.8434 64.0974 27.2547 64.0974 30.8896C64.0974 31.9895 64.3024 33.024 64.7124 33.9933C65.141 34.9441 65.7093 35.7829 66.4175 36.5099C67.1442 37.2369 67.9828 37.8054 68.9331 38.2155C69.9022 38.6256 70.9364 38.8307 72.0359 38.8307H74.328C74.5516 37.3394 74.9895 35.932 75.6417 34.6085C76.2939 33.285 77.1232 32.1013 78.1295 31.0574C77.9804 30.2372 77.6077 29.5288 77.0114 28.9323C76.6201 28.5409 76.4244 28.0656 76.4244 27.5063C76.4244 26.9471 76.6201 26.4718 77.0114 26.0803C77.4214 25.6888 77.8966 25.4931 78.437 25.4931C78.996 25.4931 79.4712 25.6888 79.8625 26.0803C80.5334 26.7513 81.0831 27.5529 81.5117 28.485C82.518 27.9257 83.5895 27.497 84.7262 27.1987C85.863 26.9005 87.0463 26.7513 88.2762 26.7513C88.8352 26.7513 89.3104 26.9471 89.7017 27.3385C90.0931 27.73 90.2887 28.2053 90.2887 28.7646C90.2887 29.3238 90.0931 29.7991 89.7017 30.1906C89.3104 30.5821 88.8352 30.7778 88.2762 30.7778C86.8786 30.7778 85.5648 31.0481 84.3349 31.5887C83.1236 32.1106 82.0615 32.8283 81.1483 33.7417C80.2725 34.6178 79.5737 35.6431 79.0519 36.8175C78.5488 37.9732 78.2786 39.2128 78.2413 40.5363V40.6761C78.3904 42.2047 78.8749 43.5935 79.6948 44.8424C80.5334 46.0913 81.6049 47.0886 82.9093 47.8342C84.2324 48.5613 85.686 48.9247 87.2699 48.9247H108.43C110.256 48.9247 111.952 48.5519 113.517 47.8063C115.082 47.0606 116.424 46.0354 117.542 44.7305C118.679 43.4257 119.499 41.9437 120.002 40.2847Z" fill="#E06767"/>
		<g clip-path="url(#clip2_117_573)">
			<path d="M22.5937 67.3717C22.5937 68.0651 22.4609 68.7117 22.195 69.3115C21.9291 69.93 21.5588 70.4735 21.0841 70.942C20.6094 71.4106 20.0587 71.776 19.4321 72.0385C18.8245 72.3008 18.1599 72.4321 17.4383 72.4321C16.7357 72.4321 16.0711 72.3008 15.4445 72.0385C14.8369 71.776 14.2957 71.4106 13.821 70.942C13.3463 70.4735 12.976 69.93 12.7101 69.3115C12.4443 68.7117 12.3114 68.0651 12.3114 67.3717C12.3114 66.6594 12.4443 65.9941 12.7101 65.3756C12.976 64.7759 13.3463 64.2417 13.821 63.7732C14.2957 63.3046 14.8369 62.9391 15.4445 62.6768C16.0711 62.4144 16.7357 62.2832 17.4383 62.2832C18.1599 62.2832 18.8245 62.4144 19.4321 62.6768C20.0587 62.9391 20.6094 63.3046 21.0841 63.7732C21.5588 64.2417 21.9291 64.7759 22.195 65.3756C22.4609 65.9941 22.5937 66.6594 22.5937 67.3717ZM17.6377 58.7128C16.1946 58.7128 14.9603 58.2442 13.9349 57.3071C12.9095 56.37 12.3968 55.2455 12.3968 53.9336V48.2547C12.3968 46.5117 13.0044 44.9749 14.2198 43.6442C15.454 42.2947 17.0111 41.4607 18.891 41.1421C20.486 40.8797 21.7962 40.1768 22.8216 39.0336C23.866 37.8716 24.3882 36.5503 24.3882 35.0696V32.5395C24.3882 31.3962 24.0938 30.356 23.5052 29.4189C22.9166 28.4631 22.119 27.6946 21.1127 27.1136C20.1062 26.5139 18.9954 26.2046 17.7801 26.1859C15.8813 26.1484 14.2577 26.7388 12.9095 27.957C11.5613 29.1565 10.8872 30.6184 10.8872 32.3427C10.8872 33.6734 10.3745 34.8073 9.3491 35.7444C8.32371 36.6815 7.08944 37.15 5.64632 37.15C4.20318 37.15 2.95942 36.6815 1.91504 35.7444C0.889648 34.8073 0.376953 33.6734 0.376953 32.3427C0.376953 30.206 0.823189 28.1725 1.71566 26.2421C2.60812 24.2929 3.88987 22.578 5.56087 21.0974C7.23189 19.598 9.14026 18.4641 11.286 17.6957C13.4317 16.9273 15.6724 16.5618 18.008 16.5993C20.3246 16.6555 22.4988 17.1053 24.5306 17.9487C26.5814 18.7921 28.3853 19.9448 29.9424 21.4066C31.4994 22.8685 32.7147 24.5553 33.5882 26.467C34.4617 28.3599 34.8985 30.3841 34.8985 32.5395V35.0696C34.8985 37.3374 34.4047 39.474 33.4173 41.4794C32.4299 43.4661 31.0627 45.1998 29.3158 46.6804C27.5688 48.161 25.5465 49.2574 23.2489 49.9696C23.002 50.0446 22.8786 50.2039 22.8786 50.4476V53.9054C22.8786 55.2361 22.3659 56.37 21.3405 57.3071C20.3151 58.2442 19.0808 58.7128 17.6377 58.7128Z" fill="#9B9B9B"/>
		</g>
	</g>
	<defs>
		<clipPath id="clip0_117_573">
			<rect width="125" height="112" fill="white"/>
		</clipPath>
		<clipPath id="clip1_117_573">
			<rect width="92" height="92" fill="white" transform="translate(17 19)"/>
		</clipPath>
		<clipPath id="clip2_117_573">
			<rect width="35" height="57" fill="white" transform="translate(0 16)"/>
		</clipPath>
	</defs>
</svg>
