<svg xmlns="http://www.w3.org/2000/svg" width="92" height="92" viewBox="0 0 92 92" fill="none">
	<rect width="92" height="92" rx="42" fill="#FFB02E"/>
	<circle cx="26.5" cy="38.5" r="16.5" fill="white"/>
	<circle cx="65.5" cy="38.5" r="16.5" fill="white"/>
	<rect x="31" y="59" width="29" height="8" rx="4" fill="#402A32"/>
	<circle cx="28" cy="39" r="7" fill="#402A32"/>
	<circle cx="63" cy="39" r="7" fill="#402A32"/>
	<path d="M19 19L19.1651 19.2311C22.708 24.1912 30.1189 24.0717 33.5 19V19" stroke="#402A32" stroke-width="4"/>
	<circle cx="19" cy="19" r="2" fill="#402A32"/>
	<circle cx="33.5" cy="19" r="2" fill="#402A32"/>
	<path d="M72 16L71.8349 15.7689C68.292 10.8088 60.8811 10.9283 57.5 16V16" stroke="#402A32" stroke-width="4"/>
	<circle cx="72" cy="16" r="2" transform="rotate(180 72 16)" fill="#402A32"/>
	<circle cx="57.5" cy="16" r="2" transform="rotate(180 57.5 16)" fill="#402A32"/>
</svg>