<svg xmlns="http://www.w3.org/2000/svg" width="60" height="99" viewBox="0 0 60 99" fill="none">
	<path d="M38.7324 89.2246C38.7324 90.429 38.5046 91.5521 38.0488 92.5938C37.5931 93.668 36.9583 94.612 36.1445 95.4258C35.3307 96.2396 34.3867 96.8743 33.3125 97.3301C32.2708 97.7858 31.1315 98.0137 29.8945 98.0137C28.6901 98.0137 27.5508 97.7858 26.4766 97.3301C25.4349 96.8743 24.5072 96.2396 23.6934 95.4258C22.8796 94.612 22.2448 93.668 21.7891 92.5938C21.3333 91.5521 21.1055 90.429 21.1055 89.2246C21.1055 87.9876 21.3333 86.832 21.7891 85.7578C22.2448 84.7161 22.8796 83.7884 23.6934 82.9746C24.5072 82.1608 25.4349 81.526 26.4766 81.0703C27.5508 80.6146 28.6901 80.3867 29.8945 80.3867C31.1315 80.3867 32.2708 80.6146 33.3125 81.0703C34.3867 81.526 35.3307 82.1608 36.1445 82.9746C36.9583 83.7884 37.5931 84.7161 38.0488 85.7578C38.5046 86.832 38.7324 87.9876 38.7324 89.2246ZM30.2363 74.1855C27.7624 74.1855 25.6465 73.3717 23.8887 71.7441C22.1309 70.1165 21.252 68.1634 21.252 65.8848V56.0215C21.252 52.9941 22.2936 50.3249 24.377 48.0137C26.4928 45.6699 29.1621 44.2214 32.3848 43.668C35.1191 43.2122 37.3652 41.9915 39.123 40.0059C40.9134 37.9876 41.8086 35.6927 41.8086 33.1211V28.7266C41.8086 26.7409 41.304 24.9342 40.2949 23.3066C39.2858 21.6465 37.9186 20.3118 36.1934 19.3027C34.4681 18.2611 32.5638 17.724 30.4805 17.6914C27.2253 17.6263 24.4421 18.6517 22.1309 20.7676C19.8197 22.8509 18.6641 25.39 18.6641 28.3848C18.6641 30.696 17.7852 32.6654 16.0273 34.293C14.2695 35.9206 12.1536 36.7344 9.67969 36.7344C7.20573 36.7344 5.07357 35.9206 3.2832 34.293C1.52539 32.6654 0.646484 30.696 0.646484 28.3848C0.646484 24.6738 1.41146 21.1419 2.94141 17.7891C4.47135 14.4036 6.66862 11.4251 9.5332 8.85352C12.3978 6.24935 15.6693 4.27995 19.3477 2.94531C23.026 1.61068 26.8672 0.975911 30.8711 1.04102C34.8424 1.13867 38.5697 1.91992 42.0527 3.38477C45.5684 4.84961 48.6608 6.85156 51.3301 9.39062C53.9993 11.9297 56.0827 14.8594 57.5801 18.1797C59.0775 21.4674 59.8262 24.9831 59.8262 28.7266V33.1211C59.8262 37.0599 58.9798 40.7708 57.2871 44.2539C55.5944 47.7044 53.2507 50.7155 50.2559 53.2871C47.2611 55.8587 43.7943 57.763 39.8555 59C39.4323 59.1302 39.2207 59.4069 39.2207 59.8301V65.8359C39.2207 68.1471 38.3418 70.1165 36.584 71.7441C34.8262 73.3717 32.7103 74.1855 30.2363 74.1855Z" fill="#9B9B9B"/>
</svg>